<svg xmlns="http://www.w3.org/2000/svg" viewBox="0 0 298.5 425.8"><defs><style>.cls-1{fill:#43d6ac;}.cls-2{fill:#5441e5;opacity:0.64;}</style></defs><title>Logo</title><g id="Layer_2" data-name="Layer 2"><g id="Layer_1-2" data-name="Layer 1"><path class="cls-1" d="M267,168.27a31.46,31.46,0,0,0,31.46-31.46V40.24A31.46,31.46,0,0,0,267,8.78H171.93a31.46,31.46,0,0,0-31.46,31.46v96.57c0,.49.05,1,.07,1.45a31.53,31.53,0,0,0-6.66-.72H38.78A31.46,31.46,0,0,0,7.32,169v96.57A31.46,31.46,0,0,0,38.78,297h95.11a31.59,31.59,0,0,0,4.07-.29,36.13,36.13,0,0,0-.41,5.41V390a35.85,35.85,0,0,0,35.85,35.85h86.33A35.85,35.85,0,0,0,295.57,390V302.16a35.85,35.85,0,0,0-35.85-35.85H173.39a35.92,35.92,0,0,0-8.13.94c0-.56.08-1.11.08-1.67V169c0-.49-.05-1-.07-1.45a31.53,31.53,0,0,0,6.66.72Z"/><path class="cls-2" d="M259.72,159.49A31.46,31.46,0,0,0,291.18,128V31.46A31.46,31.46,0,0,0,259.72,0H164.61a31.46,31.46,0,0,0-31.46,31.46V128c0,.49.05,1,.07,1.45a31.53,31.53,0,0,0-6.66-.72H31.46A31.46,31.46,0,0,0,0,160.22V256.8a31.46,31.46,0,0,0,31.46,31.46h95.11a31.59,31.59,0,0,0,4.07-.29,36.13,36.13,0,0,0-.41,5.41v87.79A35.85,35.85,0,0,0,166.08,417h86.33a35.85,35.85,0,0,0,35.85-35.85V293.38a35.85,35.85,0,0,0-35.85-35.85H166.08a35.92,35.92,0,0,0-8.13.94c0-.56.08-1.11.08-1.67V160.22c0-.49-.05-1-.07-1.45a31.53,31.53,0,0,0,6.66.72Z"/></g></g></svg>